<svg id="Layer_1" data-name="Layer 1" xmlns="http://www.w3.org/2000/svg" viewBox="0 0 234.48 93.38"><defs><style>.cls-1{fill:#231f20;}.cls-2{fill:#fff;}</style></defs><title>cereskitchenlogoknockout</title><path class="cls-1" d="M249.69,100.14l-5.35,5.34H232.23v-5.23a4.58,4.58,0,0,0-4.57-4.58H49.29a4.58,4.58,0,0,0-4.58,4.58v5.23H34.63l-5.35-5.34-7,7,7,7,5.35-5.35H44.71v5.24a4.58,4.58,0,0,0,4.58,4.57H227.66a4.58,4.58,0,0,0,4.57-4.57v-5.24h12.11l5.35,5.35,7-7Z" transform="translate(-22.25 -25.3)"/><path class="cls-1" d="M169.25,47.06h.36c6.33,0,6.75,1.44,6.75,5.57v10.3a99.52,99.52,0,0,1,13.73-3.21V47.06c5.43,0,8.3.33,11.64,2.26,5.61,3.22,7.65,7.83,7.65,11.86h.35V46.77H169.25Z" transform="translate(-22.25 -25.3)"/><path class="cls-1" d="M70.91,47.06h.36c6.33,0,6.75,1.44,6.75,5.57V62.9a99.28,99.28,0,0,1,13.73-3.19V47.06c5.43,0,8.3.33,11.64,2.26C109,52.54,111,57.15,111,61.18h.35V46.77H70.91Z" transform="translate(-22.25 -25.3)"/><path class="cls-1" d="M248,48.36a15.94,15.94,0,0,1-5.56-1.16,18.57,18.57,0,0,0-6.09-.91c-6.45,0-13.85,3.6-16.12,6.82a9.49,9.49,0,0,0-1.79,5.43c0,6.92,7.22,9.71,13.55,11.1l3.47.77c3.88.87,10.27,2.26,10.27,7.31,0,2.54-1.62,6.63-7.83,6.63a19.58,19.58,0,0,1-11.46-4c-4.24-3.12-7.29-7.78-7.29-12.59h-.35V84.35h.35a3.2,3.2,0,0,1,3.41-2.21c3.1,0,9.37,2.59,16.42,2.59,5.43,0,8.84-1.1,13-4.28a11.11,11.11,0,0,0,4.77-8.89c0-9.32-11-11-14.63-11.62l-2.8-.53C237,59,229.91,58,229.91,52.25a5.12,5.12,0,0,1,1-3.13c1.73-2,3.58-2.49,6.09-2.49a14.19,14.19,0,0,1,10,3.89c3.82,3.7,5,6.49,5,9.46h.35V46.19h-.41C251.71,48.12,249.86,48.36,248,48.36Z" transform="translate(-22.25 -25.3)"/><path class="cls-1" d="M195.18,65.18a8.67,8.67,0,0,1,5.48,5,12.75,12.75,0,0,1,.59,3.7h.42V61.51s-1.06-.06-2.89-.06c-2.06,0-5.09.09-8.69.44a85.75,85.75,0,0,0-13.73,2.39c-1.76.46-3.53,1-5.29,1.63h0l-2,.73s3-.53,7.26-1v12.9c0,4.13-.42,5.57-6.75,5.57h-.36v.3h42.63V67.72h-.35c-.6,10-4.43,13.26-10.81,15.57a25.59,25.59,0,0,1-7.23.77c-2.93,0-3.4-.39-3.4-5.53v-14a17.39,17.39,0,0,1,5.08.63Z" transform="translate(-22.25 -25.3)"/><path class="cls-1" d="M118,47.06h.42c6.33,0,6.69,1.44,6.69,5.57V65.56a98.2,98.2,0,0,1,13.73-3.22V47.06h2.09c2.86,0,5,.14,6.5,1.83,1.14,1.19,1.5,5.18,1.5,8.4a20.15,20.15,0,0,1-.34,4.17s0,0,0,.06a4.67,4.67,0,0,1-.84,1.39,3.86,3.86,0,0,1-.83.69c-1.25.77-3,.9-5.44.9H138.8a86,86,0,0,0-13.73,2.41c-1.74.46-3.5,1-5.24,1.61-.65.23-1.3.48-1.94.73,0,0,2.94-.52,7.18-1V78.53c0,4.13-.36,5.57-6.69,5.57H118v.3h27.23v-.3h-.72c-4.89,0-5.67-1.44-5.67-5.57V64.79h2.57a10,10,0,0,1,4.42.64c1.37.71,2.08,2.18,2.08,5.22,0,1.59-.29,4.66-.29,5.91,0,3,.65,5.24,2.8,6.54a14.45,14.45,0,0,0,7.28,1.77c6.28,0,7.65-2.3,8.49-3.79,1.31-2.31,1.31-6.39,1.31-6.44a7.78,7.78,0,0,0-.18-1.88h-.42a8.47,8.47,0,0,1,.18,1.83c0,4.61-1.37,8.07-3.52,8.07-1.32,0-1.61-.81-1.61-2.45V75.55c0-2.79-.3-6.15-3.94-8.16-2.87-1.59-7.05-2.17-9.44-2.65,3.7-.81,10.87-1.82,13.14-6.68a5.65,5.65,0,0,0,.48-2.21,5.86,5.86,0,0,0-1.62-4c-4.36-4.94-13.85-5.09-18.93-5.09H118Z" transform="translate(-22.25 -25.3)"/><path class="cls-1" d="M100.47,61.43c-2.06,0-5.11.09-8.72.44A85.75,85.75,0,0,0,78,64.26c-1.76.46-3.54,1-5.3,1.63h0c-.66.23-1.31.48-2,.73,0,0,3-.53,7.26-1V78.53c0,4.13-.42,5.57-6.75,5.57h-.36v.3h42.63V67.72h-.35c-.6,10-4.42,13.26-10.81,15.57a25.54,25.54,0,0,1-7.23.77c-2.93,0-3.4-.39-3.4-5.53v-14a17.61,17.61,0,0,1,5,.6h0a8.64,8.64,0,0,1,5.57,5,12.32,12.32,0,0,1,.6,3.7h.41V64.05h0V61.49S102.28,61.43,100.47,61.43Z" transform="translate(-22.25 -25.3)"/><path class="cls-1" d="M59.63,49.46c-4,0-6.39-3.17-13.68-3.17a30.56,30.56,0,0,0-11.94,3c-8.18,3.94-11.76,11.82-11.76,17.49,0,5,2.8,11.63,11,15.42a35.67,35.67,0,0,0,14,2.64A25.18,25.18,0,0,0,57,83.19c7-3.12,8.54-8.6,9.55-14h-.36c-.89,4-1.85,10.24-9,13.6a20.14,20.14,0,0,1-7.94,1.68c-10,0-11.77-9.42-11.77-15.85V62.92c0-4.62.6-12.64,6-15.67a6.42,6.42,0,0,1,3.11-.62,17.62,17.62,0,0,1,5.67,1c6.69,2.59,11.47,12.82,11.94,17.15h.36V46.67h-.36C63.81,47.59,63.33,49.46,59.63,49.46Z" transform="translate(-22.25 -25.3)"/><path class="cls-1" d="M34.63,30.64,29.28,25.3l-7,7,7,7L34.63,34H244.34l5.35,5.35,7-7-7-7-5.35,5.34Z" transform="translate(-22.25 -25.3)"/><path class="cls-2" d="M83.14,105.82l4.34,5.43a7,7,0,0,0,1.58,1.55,1.88,1.88,0,0,0,1,.29v.34H83.66v-.34a1.66,1.66,0,0,0,.79-.19.4.4,0,0,0,.18-.33,3.28,3.28,0,0,0-.84-1.44L81,107.58l-.45.38v3.36a3.61,3.61,0,0,0,.11,1.2.92.92,0,0,0,.42.41,2.19,2.19,0,0,0,1,.16v.34H75.81v-.34h.41a1.69,1.69,0,0,0,.86-.19.78.78,0,0,0,.36-.43,3.68,3.68,0,0,0,.1-1.15v-8.11a3.93,3.93,0,0,0-.1-1.18.87.87,0,0,0-.4-.41,1.61,1.61,0,0,0-.82-.18h-.41v-.34h6.13v.34a2,2,0,0,0-1,.18.88.88,0,0,0-.37.43,3.36,3.36,0,0,0-.11,1.16v3.84l4.57-3.7c.64-.52,1-.93,1-1.24a.6.6,0,0,0-.39-.54,3,3,0,0,0-1-.13v-.34h4.81v.34a2.74,2.74,0,0,0-1,.23,16,16,0,0,0-1.7,1.26Z" transform="translate(-22.25 -25.3)"/><path class="cls-2" d="M103,113.09v.34H96.57v-.34H97a1.7,1.7,0,0,0,.87-.19.87.87,0,0,0,.36-.43,3.68,3.68,0,0,0,.1-1.15v-8.11a3.93,3.93,0,0,0-.1-1.18.92.92,0,0,0-.4-.41,1.65,1.65,0,0,0-.83-.18h-.41v-.34H103v.34h-.41a1.64,1.64,0,0,0-.86.19.88.88,0,0,0-.38.44,3.9,3.9,0,0,0-.1,1.14v8.11a3.8,3.8,0,0,0,.11,1.18.91.91,0,0,0,.41.42,1.7,1.7,0,0,0,.82.17Z" transform="translate(-22.25 -25.3)"/><path class="cls-2" d="M121.52,101.1v3.34h-.33a5.39,5.39,0,0,0-.64-1.66,2.44,2.44,0,0,0-1-.8,3,3,0,0,0-1.2-.17h-.92v9.51a3.93,3.93,0,0,0,.1,1.18,1,1,0,0,0,.41.42,1.74,1.74,0,0,0,.83.17h.41v.34h-6.45v-.34h.41a1.69,1.69,0,0,0,.86-.19.84.84,0,0,0,.37-.43,3.68,3.68,0,0,0,.1-1.15v-9.51h-.89a2.61,2.61,0,0,0-1.81.53,3.53,3.53,0,0,0-1,2.1h-.34V101.1Z" transform="translate(-22.25 -25.3)"/><path class="cls-2" d="M141,100.82v4.27h-.36a4.53,4.53,0,0,0-1.49-2.56,3.81,3.81,0,0,0-2.47-.89,3.67,3.67,0,0,0-2.12.66A3.93,3.93,0,0,0,133.1,104a7.89,7.89,0,0,0-.57,3,10.21,10.21,0,0,0,.42,3,4,4,0,0,0,1.31,2,3.59,3.59,0,0,0,2.31.7,4.53,4.53,0,0,0,2.13-.51,7.57,7.57,0,0,0,2-1.76v1.07a6.83,6.83,0,0,1-2.16,1.57,6.62,6.62,0,0,1-2.62.48,7.5,7.5,0,0,1-3.51-.79,5.56,5.56,0,0,1-2.36-2.27,6.4,6.4,0,0,1-.83-3.16,6.74,6.74,0,0,1,3.41-5.8,6.79,6.79,0,0,1,3.33-.87,7.52,7.52,0,0,1,2.75.57,4.5,4.5,0,0,0,1.06.32.71.71,0,0,0,.51-.21,1.16,1.16,0,0,0,.27-.68Z" transform="translate(-22.25 -25.3)"/><path class="cls-2" d="M153.39,107.5v3.82a3.93,3.93,0,0,0,.1,1.18,1,1,0,0,0,.41.42,1.73,1.73,0,0,0,.82.17h.41v.34h-6.44v-.34h.41a1.69,1.69,0,0,0,.86-.19.78.78,0,0,0,.36-.43,3.68,3.68,0,0,0,.1-1.15v-8.11a3.93,3.93,0,0,0-.1-1.18.87.87,0,0,0-.4-.41,1.61,1.61,0,0,0-.82-.18h-.41v-.34h6.44v.34h-.41a1.69,1.69,0,0,0-.86.19.86.86,0,0,0-.37.44,3.56,3.56,0,0,0-.1,1.14v3.49h4.35v-3.49a3.93,3.93,0,0,0-.1-1.18.9.9,0,0,0-.41-.41,1.62,1.62,0,0,0-.83-.18H156v-.34h6.44v.34H162a1.64,1.64,0,0,0-.86.19.93.93,0,0,0-.38.44,3.9,3.9,0,0,0-.1,1.14v8.11a4.32,4.32,0,0,0,.1,1.18,1,1,0,0,0,.41.42,1.77,1.77,0,0,0,.83.17h.4v.34H156v-.34h.4a1.65,1.65,0,0,0,.87-.19.84.84,0,0,0,.37-.43,3.68,3.68,0,0,0,.1-1.15V107.5Z" transform="translate(-22.25 -25.3)"/><path class="cls-2" d="M174.18,101.81v5h.24a1.92,1.92,0,0,0,1.7-.74,4.44,4.44,0,0,0,.68-2.17h.34v6.46h-.34a5,5,0,0,0-.46-1.73,2.06,2.06,0,0,0-.82-.91,3.13,3.13,0,0,0-1.34-.23V111a4.84,4.84,0,0,0,.09,1.25.67.67,0,0,0,.32.37,1.47,1.47,0,0,0,.76.15h.74a4,4,0,0,0,4.26-3.24h.34l-.56,3.92H169.48v-.34h.41a1.66,1.66,0,0,0,.86-.19.84.84,0,0,0,.37-.43,4,4,0,0,0,.1-1.15v-8.11a6.15,6.15,0,0,0-.05-1,.86.86,0,0,0-.34-.5,1.54,1.54,0,0,0-.94-.25h-.41v-.34H179.8v3.65h-.35a4.38,4.38,0,0,0-.74-1.92,2.74,2.74,0,0,0-1.35-.85,7.22,7.22,0,0,0-1.91-.17Z" transform="translate(-22.25 -25.3)"/><path class="cls-2" d="M192.49,101.1l6.08,7.65v-5.3a2.52,2.52,0,0,0-.32-1.5,1.77,1.77,0,0,0-1.46-.51v-.34h4.07v.34a3.1,3.1,0,0,0-1.05.26,1,1,0,0,0-.42.52,3.53,3.53,0,0,0-.15,1.23v10.26h-.31l-8.33-10.26v7.83a1.75,1.75,0,0,0,.48,1.44,1.8,1.8,0,0,0,1.12.37h.29v.34h-4.37v-.34a1.93,1.93,0,0,0,1.41-.41,2,2,0,0,0,.4-1.4v-8.69l-.26-.33a2.48,2.48,0,0,0-.69-.65,2.1,2.1,0,0,0-.86-.17v-.34Z" transform="translate(-22.25 -25.3)"/></svg>