<svg id="Layer_1" data-name="Layer 1" xmlns="http://www.w3.org/2000/svg" viewBox="0 0 276.95 143.97"><defs><style>.cls-1{fill:#231f20;}.cls-2{fill:#fff;}</style></defs><title>cereskitchenlogo</title><path class="cls-1" d="M0,14.49V6.75A6.75,6.75,0,0,1,6.75,0H270.19A6.76,6.76,0,0,1,277,6.75V137.22a6.76,6.76,0,0,1-6.76,6.75H6.75A6.75,6.75,0,0,1,0,137.22V14.49Z"/><path class="cls-2" d="M169.25,39.44h.36c6.33,0,6.75,1.44,6.75,5.57V55.3a98,98,0,0,1,13.73-3.2V39.44c5.43,0,8.3.33,11.64,2.26,5.61,3.22,7.65,7.83,7.65,11.86h.35V39.15H169.25Z"/><path class="cls-2" d="M70.91,39.44h.36C77.6,39.44,78,40.88,78,45V55.28a99.4,99.4,0,0,1,13.73-3.2V39.44c5.43,0,8.3.33,11.64,2.26C109,44.92,111,49.53,111,53.56h.35V39.15H70.91Z"/><path class="cls-2" d="M248,40.73a15.94,15.94,0,0,1-5.56-1.15,18.57,18.57,0,0,0-6.09-.91c-6.45,0-13.85,3.6-16.12,6.82a9.47,9.47,0,0,0-1.79,5.43c0,6.92,7.22,9.71,13.55,11.1l3.47.77c3.88.86,10.27,2.26,10.27,7.3,0,2.55-1.62,6.63-7.83,6.63a19.57,19.57,0,0,1-11.46-4c-4.24-3.13-7.29-7.79-7.29-12.59h-.35V76.72h.35a3.2,3.2,0,0,1,3.41-2.21c3.1,0,9.37,2.6,16.42,2.6,5.43,0,8.84-1.11,13-4.28a11.11,11.11,0,0,0,4.77-8.89c0-9.32-11-10.95-14.63-11.63l-2.8-.52c-2.27-.44-9.38-1.45-9.38-7.16a5.12,5.12,0,0,1,1-3.13c1.73-2,3.58-2.5,6.09-2.5a14.2,14.2,0,0,1,10,3.9c3.82,3.7,5,6.48,5,9.46h.35V38.57h-.41C251.71,40.49,249.86,40.73,248,40.73Z"/><path class="cls-2" d="M195.18,57.56a8.67,8.67,0,0,1,5.48,5,12.75,12.75,0,0,1,.59,3.7h.42V53.89s-1.06-.06-2.89-.06c-2.06,0-5.09.09-8.69.44a84.65,84.65,0,0,0-13.73,2.39c-1.76.46-3.53,1-5.29,1.62h0c-.65.23-1.3.48-2,.73,0,0,3-.53,7.26-1v12.9c0,4.13-.42,5.57-6.75,5.57h-.36v.29h42.63V60.1h-.35c-.6,10-4.43,13.26-10.81,15.57a25.59,25.59,0,0,1-7.23.77c-2.93,0-3.4-.39-3.4-5.53v-14a17.39,17.39,0,0,1,5.08.63Z"/><path class="cls-2" d="M118,39.44h.42c6.33,0,6.69,1.44,6.69,5.57V57.94a98.2,98.2,0,0,1,13.73-3.22V39.44h2.09c2.86,0,5,.14,6.5,1.82,1.14,1.2,1.5,5.19,1.5,8.41a20,20,0,0,1-.34,4.16.64.64,0,0,1,0,.07,4.8,4.8,0,0,1-.84,1.39,3.86,3.86,0,0,1-.83.69c-1.25.76-3,.9-5.44.9H138.8a86,86,0,0,0-13.73,2.41c-1.74.46-3.5,1-5.24,1.61-.65.23-1.3.48-1.94.73,0,0,2.94-.53,7.18-1V70.91c0,4.13-.36,5.57-6.69,5.57H118v.29h27.23v-.29h-.72c-4.89,0-5.67-1.44-5.67-5.57V57.17h2.57a10,10,0,0,1,4.42.64c1.37.7,2.08,2.17,2.08,5.22,0,1.59-.29,4.66-.29,5.91,0,3,.65,5.24,2.8,6.53a14.46,14.46,0,0,0,7.28,1.78c6.28,0,7.65-2.3,8.49-3.8,1.31-2.3,1.31-6.38,1.31-6.43a7.78,7.78,0,0,0-.18-1.88h-.42A8.47,8.47,0,0,1,167,67c0,4.61-1.37,8.07-3.52,8.07-1.32,0-1.61-.82-1.61-2.45V67.93c0-2.79-.3-6.15-3.94-8.17-2.87-1.58-7.05-2.16-9.44-2.64,3.7-.82,10.87-1.83,13.14-6.68a5.65,5.65,0,0,0,.48-2.21,5.84,5.84,0,0,0-1.62-4c-4.36-5-13.85-5.09-18.93-5.09H118Z"/><path class="cls-2" d="M100.47,53.81c-2.06,0-5.11.09-8.72.43A87,87,0,0,0,78,56.64c-1.76.46-3.54,1-5.3,1.63h0c-.66.23-1.31.47-2,.73,0,0,3-.53,7.26-1V70.91c0,4.13-.42,5.57-6.75,5.57h-.36v.29h42.63V60.1h-.35c-.6,10-4.42,13.26-10.81,15.57a25.54,25.54,0,0,1-7.23.77c-2.93,0-3.4-.39-3.4-5.53v-14a17.61,17.61,0,0,1,5,.6h0a8.69,8.69,0,0,1,5.57,5,12.32,12.32,0,0,1,.6,3.7h.41V56.43h0V53.87S102.28,53.81,100.47,53.81Z"/><path class="cls-2" d="M59.63,41.84c-4,0-6.39-3.17-13.68-3.17A30.56,30.56,0,0,0,34,41.7c-8.18,3.94-11.76,11.82-11.76,17.49,0,5,2.8,11.62,11,15.42a35.67,35.67,0,0,0,14,2.64A25.37,25.37,0,0,0,57,75.57c7-3.12,8.54-8.6,9.55-14h-.36c-.89,4-1.85,10.23-9,13.6a20.14,20.14,0,0,1-7.94,1.68c-10,0-11.77-9.42-11.77-15.86V55.29c0-4.61.6-12.63,6-15.66A6.42,6.42,0,0,1,46.55,39a17.91,17.91,0,0,1,5.67,1c6.69,2.6,11.47,12.83,11.94,17.16h.36V39.05h-.36C63.81,40,63.33,41.84,59.63,41.84Z"/><path class="cls-2" d="M34.63,23l-5.35-5.35-7,7,7,7,5.35-5.35H244.34l5.35,5.35,7-7-7-7L244.34,23Z"/><path class="cls-2" d="M249.69,102.51l-5.35,5.35H232.23v-5.24a4.58,4.58,0,0,0-4.57-4.57H49.29a4.58,4.58,0,0,0-4.58,4.57v5.24H34.63l-5.35-5.35-7,7,7,7,5.35-5.35H44.71v5.24a4.58,4.58,0,0,0,4.58,4.57H227.66a4.58,4.58,0,0,0,4.57-4.57v-5.24h12.11l5.35,5.35,7-7Z"/><path class="cls-1" d="M83.14,108.2l4.34,5.43a7,7,0,0,0,1.58,1.55,2,2,0,0,0,1,.29v.34H83.66v-.34a1.8,1.8,0,0,0,.79-.19.41.41,0,0,0,.18-.34,3.32,3.32,0,0,0-.84-1.43L81,110l-.45.39v3.36a3.61,3.61,0,0,0,.11,1.2.86.86,0,0,0,.42.4,2,2,0,0,0,1,.17v.34H75.81v-.34h.41a1.69,1.69,0,0,0,.86-.19.77.77,0,0,0,.36-.44,3.56,3.56,0,0,0,.1-1.14v-8.11a3.93,3.93,0,0,0-.1-1.18A.83.83,0,0,0,77,104a1.61,1.61,0,0,0-.82-.18h-.41v-.34h6.13v.34a2,2,0,0,0-1,.18.84.84,0,0,0-.37.43,3.36,3.36,0,0,0-.11,1.16v3.84l4.57-3.7c.64-.52,1-.93,1-1.24a.6.6,0,0,0-.39-.54,3,3,0,0,0-1-.13v-.34h4.81v.34a2.74,2.74,0,0,0-1,.23,13.4,13.4,0,0,0-1.7,1.26Z"/><path class="cls-1" d="M103,115.47v.34H96.57v-.34H97a1.7,1.7,0,0,0,.87-.19.86.86,0,0,0,.36-.44,3.56,3.56,0,0,0,.1-1.14v-8.11a3.93,3.93,0,0,0-.1-1.18.87.87,0,0,0-.4-.41,1.65,1.65,0,0,0-.83-.18h-.41v-.34H103v.34h-.41a1.64,1.64,0,0,0-.86.19.84.84,0,0,0-.38.44,3.9,3.9,0,0,0-.1,1.14v8.11a3.8,3.8,0,0,0,.11,1.18.85.85,0,0,0,.41.41,1.58,1.58,0,0,0,.82.18Z"/><path class="cls-1" d="M121.52,103.48v3.34h-.33a5.39,5.39,0,0,0-.64-1.66,2.46,2.46,0,0,0-1-.81,3.28,3.28,0,0,0-1.2-.16h-.92v9.51a3.93,3.93,0,0,0,.1,1.18.9.9,0,0,0,.41.41,1.62,1.62,0,0,0,.83.18h.41v.34h-6.45v-.34h.41a1.69,1.69,0,0,0,.86-.19.82.82,0,0,0,.37-.44,3.56,3.56,0,0,0,.1-1.14v-9.51h-.89a2.61,2.61,0,0,0-1.81.53,3.53,3.53,0,0,0-1,2.1h-.34v-3.34Z"/><path class="cls-1" d="M141,103.2v4.27h-.36a4.49,4.49,0,0,0-1.49-2.56,3.75,3.75,0,0,0-2.47-.89,3.67,3.67,0,0,0-2.12.66,3.88,3.88,0,0,0-1.41,1.74,7.86,7.86,0,0,0-.57,3,10.21,10.21,0,0,0,.42,3,4,4,0,0,0,1.31,2.05,3.65,3.65,0,0,0,2.31.7,4.53,4.53,0,0,0,2.13-.51,7.57,7.57,0,0,0,2-1.76V114a6.63,6.63,0,0,1-2.16,1.56,6.45,6.45,0,0,1-2.62.49,7.5,7.5,0,0,1-3.51-.79,5.62,5.62,0,0,1-2.36-2.27,6.4,6.4,0,0,1-.83-3.16,6.74,6.74,0,0,1,3.41-5.8,6.79,6.79,0,0,1,3.33-.87,7.71,7.71,0,0,1,2.75.56,4.24,4.24,0,0,0,1.06.33.71.71,0,0,0,.51-.21,1.19,1.19,0,0,0,.27-.68Z"/><path class="cls-1" d="M153.39,109.88v3.82a3.93,3.93,0,0,0,.1,1.18.9.9,0,0,0,.41.41,1.61,1.61,0,0,0,.82.18h.41v.34h-6.44v-.34h.41a1.69,1.69,0,0,0,.86-.19.77.77,0,0,0,.36-.44,3.56,3.56,0,0,0,.1-1.14v-8.11a3.93,3.93,0,0,0-.1-1.18.83.83,0,0,0-.4-.41,1.61,1.61,0,0,0-.82-.18h-.41v-.34h6.44v.34h-.41a1.69,1.69,0,0,0-.86.19.82.82,0,0,0-.37.44,3.56,3.56,0,0,0-.1,1.14v3.49h4.35v-3.49a3.93,3.93,0,0,0-.1-1.18.85.85,0,0,0-.41-.41,1.62,1.62,0,0,0-.83-.18H156v-.34h6.44v.34H162a1.64,1.64,0,0,0-.86.19.88.88,0,0,0-.38.44,3.9,3.9,0,0,0-.1,1.14v8.11a4.32,4.32,0,0,0,.1,1.18.9.9,0,0,0,.41.41,1.65,1.65,0,0,0,.83.18h.4v.34H156v-.34h.4a1.65,1.65,0,0,0,.87-.19.82.82,0,0,0,.37-.44,3.56,3.56,0,0,0,.1-1.14v-3.82Z"/><path class="cls-1" d="M174.18,104.19v5h.24a1.94,1.94,0,0,0,1.7-.74,4.44,4.44,0,0,0,.68-2.17h.34v6.45h-.34a5,5,0,0,0-.46-1.72,2.06,2.06,0,0,0-.82-.91,3.13,3.13,0,0,0-1.34-.23v3.47a4.84,4.84,0,0,0,.09,1.25.71.71,0,0,0,.32.37,1.47,1.47,0,0,0,.76.15h.74a4,4,0,0,0,4.26-3.24h.34l-.56,3.92H169.48v-.34h.41a1.66,1.66,0,0,0,.86-.19.82.82,0,0,0,.37-.44,3.9,3.9,0,0,0,.1-1.14v-8.11a6.31,6.31,0,0,0-.05-1,.86.86,0,0,0-.34-.49,1.54,1.54,0,0,0-.94-.25h-.41v-.34H179.8v3.65h-.35a4.38,4.38,0,0,0-.74-1.92,2.82,2.82,0,0,0-1.35-.86,7.83,7.83,0,0,0-1.91-.16Z"/><path class="cls-1" d="M192.49,103.48l6.08,7.65v-5.3a2.52,2.52,0,0,0-.32-1.5,1.77,1.77,0,0,0-1.46-.51v-.34h4.07v.34a2.88,2.88,0,0,0-1.05.26,1,1,0,0,0-.42.51,3.6,3.6,0,0,0-.15,1.24v10.26h-.31l-8.33-10.26v7.83a1.75,1.75,0,0,0,.48,1.44,1.8,1.8,0,0,0,1.12.37h.29v.34h-4.37v-.34a1.88,1.88,0,0,0,1.41-.42,1.92,1.92,0,0,0,.4-1.39V105l-.26-.32A2.34,2.34,0,0,0,189,104a2.1,2.1,0,0,0-.86-.17v-.34Z"/></svg>